<mxfile host="app.diagrams.net" agent="Mozilla/5.0 (Windows NT 10.0; Win64; x64) AppleWebKit/537.36 (KHTML, like Gecko) Chrome/132.0.0.0 YaBrowser/25.2.0.0 Safari/537.36" version="26.2.12">
  <diagram name="Страница — 1" id="5N9X3Y17L_XoEcSVhi0d">
    <mxGraphModel dx="1502" dy="675" grid="1" gridSize="10" guides="1" tooltips="1" connect="1" arrows="1" fold="1" page="1" pageScale="1" pageWidth="827" pageHeight="1169" math="0" shadow="0">
      <root>
        <mxCell id="0" />
        <mxCell id="1" parent="0" />
        <mxCell id="ITbkGFI6erBc72IIZBpy-7" style="edgeStyle=orthogonalEdgeStyle;rounded=0;orthogonalLoop=1;jettySize=auto;html=1;exitX=1;exitY=0.5;exitDx=0;exitDy=0;" edge="1" parent="1" source="wK_ba-2Pib_sXPPsbPto-1">
          <mxGeometry relative="1" as="geometry">
            <mxPoint x="180" y="269.66666666666663" as="targetPoint" />
          </mxGeometry>
        </mxCell>
        <mxCell id="wK_ba-2Pib_sXPPsbPto-1" value="" style="ellipse;whiteSpace=wrap;html=1;aspect=fixed;" parent="1" vertex="1">
          <mxGeometry x="50" y="240" width="60" height="60" as="geometry" />
        </mxCell>
        <mxCell id="wK_ba-2Pib_sXPPsbPto-3" value="&lt;div&gt;Нужна бумага А4&lt;/div&gt;" style="text;html=1;align=center;verticalAlign=middle;resizable=0;points=[];autosize=1;strokeColor=none;fillColor=none;rounded=0;" parent="1" vertex="1">
          <mxGeometry x="20" y="300" width="120" height="30" as="geometry" />
        </mxCell>
        <mxCell id="ITbkGFI6erBc72IIZBpy-9" style="edgeStyle=orthogonalEdgeStyle;rounded=0;orthogonalLoop=1;jettySize=auto;html=1;exitX=1;exitY=0.5;exitDx=0;exitDy=0;exitPerimeter=0;" edge="1" parent="1" source="ITbkGFI6erBc72IIZBpy-8">
          <mxGeometry relative="1" as="geometry">
            <mxPoint x="280.0000000000002" y="269.7777777777777" as="targetPoint" />
          </mxGeometry>
        </mxCell>
        <mxCell id="ITbkGFI6erBc72IIZBpy-8" value="" style="points=[[0.25,0.25,0],[0.5,0,0],[0.75,0.25,0],[1,0.5,0],[0.75,0.75,0],[0.5,1,0],[0.25,0.75,0],[0,0.5,0]];shape=mxgraph.bpmn.gateway2;html=1;verticalLabelPosition=bottom;labelBackgroundColor=#ffffff;verticalAlign=top;align=center;perimeter=rhombusPerimeter;outlineConnect=0;outline=none;symbol=none;gwType=exclusive;" vertex="1" parent="1">
          <mxGeometry x="180" y="245" width="50" height="50" as="geometry" />
        </mxCell>
        <mxCell id="ITbkGFI6erBc72IIZBpy-11" style="edgeStyle=orthogonalEdgeStyle;rounded=0;orthogonalLoop=1;jettySize=auto;html=1;exitX=0.5;exitY=1;exitDx=0;exitDy=0;exitPerimeter=0;" edge="1" parent="1" source="ITbkGFI6erBc72IIZBpy-10">
          <mxGeometry relative="1" as="geometry">
            <mxPoint x="340.44444444444434" y="370" as="targetPoint" />
          </mxGeometry>
        </mxCell>
        <mxCell id="ITbkGFI6erBc72IIZBpy-10" value="Осмотреть товар" style="points=[[0.25,0,0],[0.5,0,0],[0.75,0,0],[1,0.25,0],[1,0.5,0],[1,0.75,0],[0.75,1,0],[0.5,1,0],[0.25,1,0],[0,0.75,0],[0,0.5,0],[0,0.25,0]];shape=mxgraph.bpmn.task2;whiteSpace=wrap;rectStyle=rounded;size=10;html=1;container=1;expand=0;collapsible=0;taskMarker=abstract;" vertex="1" parent="1">
          <mxGeometry x="280" y="230" width="120" height="80" as="geometry" />
        </mxCell>
        <mxCell id="ITbkGFI6erBc72IIZBpy-14" style="edgeStyle=orthogonalEdgeStyle;rounded=0;orthogonalLoop=1;jettySize=auto;html=1;exitX=1;exitY=0.5;exitDx=0;exitDy=0;exitPerimeter=0;" edge="1" parent="1" source="ITbkGFI6erBc72IIZBpy-12">
          <mxGeometry relative="1" as="geometry">
            <mxPoint x="440.0000000000002" y="395.33333333333326" as="targetPoint" />
          </mxGeometry>
        </mxCell>
        <mxCell id="ITbkGFI6erBc72IIZBpy-12" value="" style="points=[[0.25,0.25,0],[0.5,0,0],[0.75,0.25,0],[1,0.5,0],[0.75,0.75,0],[0.5,1,0],[0.25,0.75,0],[0,0.5,0]];shape=mxgraph.bpmn.gateway2;html=1;verticalLabelPosition=bottom;labelBackgroundColor=#ffffff;verticalAlign=top;align=center;perimeter=rhombusPerimeter;outlineConnect=0;outline=none;symbol=none;gwType=exclusive;" vertex="1" parent="1">
          <mxGeometry x="315" y="370" width="50" height="50" as="geometry" />
        </mxCell>
        <mxCell id="ITbkGFI6erBc72IIZBpy-13" value="Есть ли упаковка?&lt;div&gt;&lt;br&gt;&lt;/div&gt;" style="text;html=1;align=center;verticalAlign=middle;resizable=0;points=[];autosize=1;strokeColor=none;fillColor=none;" vertex="1" parent="1">
          <mxGeometry x="190" y="383" width="130" height="40" as="geometry" />
        </mxCell>
        <mxCell id="ITbkGFI6erBc72IIZBpy-16" style="edgeStyle=orthogonalEdgeStyle;rounded=0;orthogonalLoop=1;jettySize=auto;html=1;exitX=1;exitY=0.5;exitDx=0;exitDy=0;exitPerimeter=0;" edge="1" parent="1" source="ITbkGFI6erBc72IIZBpy-15">
          <mxGeometry relative="1" as="geometry">
            <mxPoint x="630" y="395.33333333333326" as="targetPoint" />
          </mxGeometry>
        </mxCell>
        <mxCell id="ITbkGFI6erBc72IIZBpy-15" value="Снять упаковку" style="points=[[0.25,0,0],[0.5,0,0],[0.75,0,0],[1,0.25,0],[1,0.5,0],[1,0.75,0],[0.75,1,0],[0.5,1,0],[0.25,1,0],[0,0.75,0],[0,0.5,0],[0,0.25,0]];shape=mxgraph.bpmn.task2;whiteSpace=wrap;rectStyle=rounded;size=10;html=1;container=1;expand=0;collapsible=0;taskMarker=abstract;" vertex="1" parent="1">
          <mxGeometry x="440" y="355" width="120" height="80" as="geometry" />
        </mxCell>
        <mxCell id="ITbkGFI6erBc72IIZBpy-18" style="edgeStyle=orthogonalEdgeStyle;rounded=0;orthogonalLoop=1;jettySize=auto;html=1;" edge="1" parent="1" source="ITbkGFI6erBc72IIZBpy-17">
          <mxGeometry relative="1" as="geometry">
            <mxPoint x="655" y="480" as="targetPoint" />
          </mxGeometry>
        </mxCell>
        <mxCell id="ITbkGFI6erBc72IIZBpy-17" value="" style="points=[[0.25,0.25,0],[0.5,0,0],[0.75,0.25,0],[1,0.5,0],[0.75,0.75,0],[0.5,1,0],[0.25,0.75,0],[0,0.5,0]];shape=mxgraph.bpmn.gateway2;html=1;verticalLabelPosition=bottom;labelBackgroundColor=#ffffff;verticalAlign=top;align=center;perimeter=rhombusPerimeter;outlineConnect=0;outline=none;symbol=none;gwType=parallel;" vertex="1" parent="1">
          <mxGeometry x="630" y="370" width="50" height="50" as="geometry" />
        </mxCell>
        <mxCell id="ITbkGFI6erBc72IIZBpy-20" style="edgeStyle=orthogonalEdgeStyle;rounded=0;orthogonalLoop=1;jettySize=auto;html=1;exitX=0.5;exitY=1;exitDx=0;exitDy=0;exitPerimeter=0;" edge="1" parent="1" source="ITbkGFI6erBc72IIZBpy-19">
          <mxGeometry relative="1" as="geometry">
            <mxPoint x="654.8888888888889" y="620" as="targetPoint" />
          </mxGeometry>
        </mxCell>
        <mxCell id="ITbkGFI6erBc72IIZBpy-19" value="Сохранить упаковку и чек в течение 2 недель" style="points=[[0.25,0,0],[0.5,0,0],[0.75,0,0],[1,0.25,0],[1,0.5,0],[1,0.75,0],[0.75,1,0],[0.5,1,0],[0.25,1,0],[0,0.75,0],[0,0.5,0],[0,0.25,0]];shape=mxgraph.bpmn.task2;whiteSpace=wrap;rectStyle=rounded;size=10;html=1;container=1;expand=0;collapsible=0;taskMarker=abstract;" vertex="1" parent="1">
          <mxGeometry x="595" y="480" width="120" height="80" as="geometry" />
        </mxCell>
        <mxCell id="ITbkGFI6erBc72IIZBpy-22" style="edgeStyle=orthogonalEdgeStyle;rounded=0;orthogonalLoop=1;jettySize=auto;html=1;" edge="1" parent="1" source="ITbkGFI6erBc72IIZBpy-21">
          <mxGeometry relative="1" as="geometry">
            <mxPoint x="655" y="780" as="targetPoint" />
          </mxGeometry>
        </mxCell>
        <mxCell id="ITbkGFI6erBc72IIZBpy-21" value="Выкинуть упаковку и чек" style="points=[[0.25,0,0],[0.5,0,0],[0.75,0,0],[1,0.25,0],[1,0.5,0],[1,0.75,0],[0.75,1,0],[0.5,1,0],[0.25,1,0],[0,0.75,0],[0,0.5,0],[0,0.25,0]];shape=mxgraph.bpmn.task2;whiteSpace=wrap;rectStyle=rounded;size=10;html=1;container=1;expand=0;collapsible=0;taskMarker=abstract;" vertex="1" parent="1">
          <mxGeometry x="595" y="620" width="120" height="80" as="geometry" />
        </mxCell>
        <mxCell id="ITbkGFI6erBc72IIZBpy-24" value="Упаковка и чек утилизированы как ТБО&lt;div&gt;&lt;br&gt;&lt;/div&gt;" style="points=[[0.145,0.145,0],[0.5,0,0],[0.855,0.145,0],[1,0.5,0],[0.855,0.855,0],[0.5,1,0],[0.145,0.855,0],[0,0.5,0]];shape=mxgraph.bpmn.event;html=1;verticalLabelPosition=bottom;labelBackgroundColor=#ffffff;verticalAlign=top;align=center;perimeter=ellipsePerimeter;outlineConnect=0;aspect=fixed;outline=end;symbol=terminate2;" vertex="1" parent="1">
          <mxGeometry x="610" y="780" width="90" height="90" as="geometry" />
        </mxCell>
      </root>
    </mxGraphModel>
  </diagram>
</mxfile>
